<?xml version="1.0" encoding="UTF-8"?>
<svg id="Layer_1" data-name="Layer 1" xmlns="http://www.w3.org/2000/svg" viewBox="0 0 89.78 91.73">
  <defs>
    <style>
      .cls-1 {
        isolation: isolate;
      }

      .cls-2 {
        fill: #fff;
      }

      .cls-3 {
        stroke: #e22343;
      }

      .cls-3, .cls-4 {
        fill: none;
        stroke-miterlimit: 10;
        stroke-width: 2px;
      }

      .cls-4 {
        stroke: #ee1d45;
      }
    </style>
  </defs>
  <g class="cls-1">
    <g class="cls-1">
      <path class="cls-2" d="M2.66,64.22c-.8-.34-1.43-.82-1.9-1.44-.46-.62-.72-1.32-.77-2.12h2.26c.06.66.37,1.19.92,1.61.55.42,1.28.62,2.17.62.83,0,1.49-.18,1.97-.55.48-.37.72-.83.72-1.39s-.26-1-.77-1.28-1.3-.56-2.38-.83c-.98-.26-1.77-.52-2.39-.78-.62-.27-1.14-.66-1.58-1.18-.44-.52-.66-1.21-.66-2.05,0-.67.2-1.29.6-1.85.4-.56.97-1,1.7-1.33s1.58-.49,2.52-.49c1.46,0,2.63.37,3.53,1.1.9.74,1.38,1.74,1.44,3.02h-2.18c-.05-.69-.32-1.24-.83-1.66-.5-.41-1.18-.62-2.03-.62-.78,0-1.41.17-1.87.5-.46.34-.7.78-.7,1.32,0,.43.14.79.42,1.07.28.28.63.5,1.06.67s1.01.36,1.76.56c.94.26,1.71.51,2.3.76.59.25,1.1.62,1.52,1.12.42.5.64,1.14.66,1.94,0,.72-.2,1.37-.6,1.95-.4.58-.96,1.03-1.69,1.36-.73.33-1.56.49-2.51.49-1.01,0-1.91-.17-2.71-.52Z"/>
      <path class="cls-2" d="M12.55,54.36c.54-1.02,1.29-1.8,2.24-2.36.95-.56,2.01-.84,3.18-.84s2.15.25,3,.74c.85.5,1.48,1.12,1.9,1.87v-2.4h2.21v13.15h-2.21v-2.45c-.43.77-1.08,1.4-1.93,1.91s-1.85.76-2.99.76-2.22-.29-3.17-.87c-.94-.57-1.69-1.38-2.23-2.42-.54-1.04-.82-2.22-.82-3.55s.27-2.52.82-3.54ZM22.27,55.33c-.4-.74-.94-1.3-1.62-1.69-.68-.39-1.43-.59-2.24-.59s-1.56.19-2.23.57c-.67.38-1.21.95-1.61,1.68s-.6,1.6-.6,2.59.2,1.88.6,2.63.94,1.31,1.61,1.71c.67.39,1.42.59,2.23.59s1.56-.2,2.24-.59c.68-.39,1.22-.96,1.62-1.71s.6-1.61.6-2.6-.2-1.86-.6-2.59Z"/>
      <path class="cls-2" d="M38.38,52.58c.99.97,1.49,2.36,1.49,4.19v7.75h-2.16v-7.44c0-1.31-.33-2.32-.98-3.01-.66-.7-1.55-1.04-2.69-1.04s-2.07.36-2.75,1.08c-.68.72-1.02,1.77-1.02,3.14v7.27h-2.18v-13.15h2.18v1.87c.43-.67,1.02-1.19,1.76-1.56.74-.37,1.56-.55,2.46-.55,1.6,0,2.9.48,3.89,1.45Z"/>
      <path class="cls-2" d="M42.74,54.36c.54-1.02,1.29-1.8,2.24-2.36.95-.56,2.02-.84,3.2-.84,1.02,0,1.98.24,2.86.71.88.47,1.55,1.09,2.02,1.86v-6.96h2.21v17.76h-2.21v-2.47c-.43.78-1.07,1.43-1.92,1.93-.85.5-1.84.76-2.98.76s-2.23-.29-3.18-.87c-.95-.57-1.7-1.38-2.24-2.42-.54-1.04-.82-2.22-.82-3.55s.27-2.52.82-3.54ZM52.46,55.33c-.4-.74-.94-1.3-1.62-1.69-.68-.39-1.43-.59-2.24-.59s-1.56.19-2.23.57c-.67.38-1.21.95-1.61,1.68s-.6,1.6-.6,2.59.2,1.88.6,2.63.94,1.31,1.61,1.71c.67.39,1.42.59,2.23.59s1.56-.2,2.24-.59c.68-.39,1.22-.96,1.62-1.71s.6-1.61.6-2.6-.2-1.86-.6-2.59Z"/>
      <path class="cls-2" d="M69.6,51.37l-7.92,19.35h-2.26l2.59-6.34-5.3-13.01h2.42l4.13,10.66,4.08-10.66h2.26Z"/>
    </g>
  </g>
  <g class="cls-1">
    <g class="cls-1">
      <path class="cls-2" d="M61.15,72.39l-7.92,19.34h-2.26l2.59-6.34-5.3-13.01h2.42l4.13,10.66,4.08-10.66h2.26Z"/>
      <path class="cls-2" d="M65.02,84.92c-1-.56-1.78-1.36-2.35-2.39-.57-1.03-.85-2.23-.85-3.59s.29-2.53.88-3.56c.58-1.03,1.38-1.82,2.39-2.38s2.14-.83,3.38-.83,2.38.28,3.38.83,1.8,1.34,2.39,2.36c.58,1.02.88,2.22.88,3.58s-.3,2.56-.9,3.59c-.6,1.03-1.41,1.83-2.44,2.39-1.02.56-2.16.84-3.41.84s-2.35-.28-3.35-.84ZM70.58,83.28c.69-.37,1.24-.92,1.67-1.66.42-.74.64-1.63.64-2.69s-.21-1.95-.62-2.69c-.42-.74-.96-1.28-1.63-1.64-.67-.36-1.4-.54-2.18-.54s-1.53.18-2.2.54c-.66.36-1.2.91-1.6,1.64-.4.74-.6,1.63-.6,2.69s.2,1.98.59,2.71c.39.74.92,1.28,1.57,1.64.66.36,1.38.54,2.16.54s1.52-.18,2.21-.55Z"/>
      <path class="cls-2" d="M79.69,84.92c-1-.56-1.78-1.36-2.35-2.39-.57-1.03-.85-2.23-.85-3.59s.29-2.53.88-3.56,1.38-1.82,2.39-2.38c1.01-.55,2.14-.83,3.38-.83s2.38.28,3.38.83,1.8,1.34,2.39,2.36c.58,1.02.88,2.22.88,3.58s-.3,2.56-.9,3.59c-.6,1.03-1.41,1.83-2.44,2.39-1.02.56-2.16.84-3.41.84s-2.35-.28-3.35-.84ZM85.24,83.28c.69-.37,1.24-.92,1.67-1.66.42-.74.64-1.63.64-2.69s-.21-1.95-.62-2.69c-.42-.74-.96-1.28-1.63-1.64-.67-.36-1.4-.54-2.18-.54s-1.53.18-2.2.54c-.66.36-1.2.91-1.6,1.64-.4.74-.6,1.63-.6,2.69s.2,1.98.59,2.71c.39.74.92,1.28,1.57,1.64.66.36,1.38.54,2.16.54s1.52-.18,2.21-.55Z"/>
    </g>
  </g>
  <line class="cls-2" x1="0" y1="70.71" x2="70.71"/>
  <line class="cls-3" x1="0" y1="73.55" x2="43.76" y2="73.55"/>
  <line class="cls-4" x1="0" y1="69.5" x2="55.75" y2="69.5"/>
</svg>