<?xml version="1.0" encoding="UTF-8"?><svg id="a" xmlns="http://www.w3.org/2000/svg" viewBox="0 0 106.366 143.901"><path d="M2.664,64.219c-.8-.344-1.432-.824-1.896-1.44-.464-.616-.72-1.324-.768-2.124h2.256c.064.656.372,1.192.924,1.608.552.416,1.276.624,2.172.624.832,0,1.488-.184,1.968-.552.48-.368.72-.832.72-1.392,0-.576-.256-1.004-.768-1.284s-1.304-.556-2.376-.828c-.976-.256-1.772-.516-2.388-.78-.616-.264-1.145-.656-1.584-1.176-.44-.52-.66-1.204-.66-2.052,0-.672.2-1.288.6-1.848.399-.56.968-1.004,1.704-1.332.736-.328,1.576-.492,2.52-.492,1.456,0,2.632.369,3.528,1.104.896.736,1.376,1.744,1.44,3.024h-2.184c-.048-.688-.324-1.24-.828-1.656s-1.18-.624-2.028-.624c-.784,0-1.408.168-1.872.504-.464.336-.696.776-.696,1.32,0,.432.14.788.42,1.068.28.28.632.504,1.056.672s1.012.356,1.764.564c.944.256,1.712.508,2.304.756.592.249,1.1.621,1.524,1.116.424.496.644,1.144.66,1.944,0,.72-.201,1.368-.6,1.944-.4.576-.964,1.028-1.692,1.356-.729.328-1.564.492-2.508.492-1.008,0-1.912-.172-2.712-.516Z" fill="#fff"/><path d="M12.648,54.355c.543-1.016,1.292-1.804,2.244-2.364s2.012-.84,3.18-.84c1.152,0,2.152.249,3,.744.848.496,1.48,1.12,1.896,1.872v-2.4h2.208v13.152h-2.208v-2.448c-.432.768-1.076,1.404-1.932,1.908s-1.852.756-2.988.756c-1.168,0-2.224-.288-3.168-.864-.944-.576-1.688-1.384-2.232-2.424-.544-1.04-.816-2.224-.816-3.552,0-1.344.271-2.524.816-3.54ZM22.368,55.327c-.4-.736-.94-1.3-1.62-1.692-.681-.392-1.428-.588-2.244-.588s-1.56.192-2.232.576c-.672.384-1.208.944-1.608,1.68s-.6,1.6-.6,2.592c0,1.008.2,1.884.6,2.628s.936,1.312,1.608,1.704c.672.392,1.416.588,2.232.588s1.563-.196,2.244-.588c.68-.392,1.22-.96,1.62-1.704s.6-1.612.6-2.604-.2-1.856-.6-2.592Z" fill="#fff"/><path d="M38.568,52.579c.992.968,1.488,2.364,1.488,4.188v7.752h-2.16v-7.44c0-1.312-.328-2.316-.984-3.012-.656-.696-1.552-1.044-2.688-1.044-1.152,0-2.068.36-2.748,1.08s-1.02,1.768-1.02,3.144v7.272h-2.184v-13.152h2.184v1.872c.432-.672,1.02-1.192,1.764-1.56s1.564-.552,2.46-.552c1.6,0,2.896.484,3.888,1.452Z" fill="#fff"/><path d="M43.032,54.355c.543-1.016,1.292-1.804,2.244-2.364s2.02-.84,3.204-.84c1.024,0,1.976.236,2.856.708.88.472,1.552,1.092,2.016,1.86v-6.96h2.208v17.76h-2.208v-2.472c-.432.784-1.072,1.428-1.92,1.932-.848.504-1.84.756-2.976.756-1.168,0-2.228-.288-3.18-.864s-1.7-1.384-2.244-2.424c-.544-1.04-.816-2.224-.816-3.552,0-1.344.271-2.524.816-3.54ZM52.751,55.327c-.4-.736-.94-1.3-1.62-1.692-.681-.392-1.428-.588-2.244-.588s-1.56.192-2.232.576c-.672.384-1.208.944-1.608,1.68s-.6,1.6-.6,2.592c0,1.008.2,1.884.6,2.628s.936,1.312,1.608,1.704c.672.392,1.416.588,2.232.588s1.563-.196,2.244-.588c.68-.392,1.22-.96,1.62-1.704s.6-1.612.6-2.604-.2-1.856-.6-2.592Z" fill="#fff"/><path d="M69.984,51.367l-7.92,19.344h-2.256l2.592-6.336-5.304-13.008h2.424l4.128,10.656,4.08-10.656h2.256Z" fill="#fff"/><path d="M61.144,72.388l-7.92,19.344h-2.256l2.592-6.336-5.304-13.008h2.424l4.128,10.655,4.08-10.655h2.256Z" fill="#fff"/><path d="M65.116,84.915c-1-.56-1.784-1.356-2.353-2.388-.567-1.032-.852-2.229-.852-3.589,0-1.343.292-2.531.876-3.563.584-1.031,1.38-1.823,2.388-2.375,1.009-.552,2.137-.828,3.385-.828s2.376.276,3.384.828c1.008.552,1.804,1.34,2.388,2.364.584,1.024.876,2.216.876,3.575s-.3,2.557-.899,3.589c-.601,1.031-1.413,1.828-2.437,2.388-1.024.561-2.16.84-3.408.84-1.232,0-2.348-.279-3.348-.84ZM70.671,83.283c.688-.368,1.244-.92,1.668-1.656.424-.735.637-1.632.637-2.688s-.209-1.951-.624-2.688c-.417-.735-.96-1.283-1.633-1.644-.672-.36-1.399-.54-2.184-.54-.8,0-1.532.18-2.196.54s-1.196.908-1.596,1.644c-.4.736-.6,1.633-.6,2.688,0,1.072.195,1.977.588,2.713.392.735.915,1.284,1.571,1.644.656.36,1.376.54,2.16.54s1.521-.184,2.208-.552Z" fill="#fff"/><path d="M79.875,84.915c-1-.56-1.784-1.356-2.353-2.388-.567-1.032-.852-2.229-.852-3.589,0-1.343.292-2.531.876-3.563.584-1.031,1.38-1.823,2.388-2.375,1.009-.552,2.137-.828,3.385-.828s2.376.276,3.384.828c1.008.552,1.804,1.34,2.388,2.364.584,1.024.876,2.216.876,3.575s-.3,2.557-.899,3.589c-.601,1.031-1.413,1.828-2.437,2.388-1.024.561-2.16.84-3.408.84-1.232,0-2.348-.279-3.348-.84ZM85.431,83.283c.688-.368,1.244-.92,1.668-1.656.424-.735.637-1.632.637-2.688s-.209-1.951-.624-2.688c-.417-.735-.96-1.283-1.633-1.644-.672-.36-1.399-.54-2.184-.54-.8,0-1.532.18-2.196.54s-1.196.908-1.596,1.644c-.4.736-.6,1.633-.6,2.688,0,1.072.195,1.977.588,2.713.392.735.915,1.284,1.571,1.644.656.36,1.376.54,2.16.54s1.521-.184,2.208-.552Z" fill="#fff"/><line x1="0" y1="70.711" x2="70.711" fill="#fff"/><line x1="0" y1="73.545" x2="43.761" y2="73.545" fill="#ee1d45" stroke="#e22343" stroke-miterlimit="10" stroke-width="2"/><line x1="0" y1="69.498" x2="55.749" y2="69.498" fill="#ee1d45" stroke="#ee1d45" stroke-miterlimit="10" stroke-width="2"/><line x1="35.655" y1="143.901" x2="106.366" y2="73.19" fill="none"/></svg>