<?xml version="1.0" encoding="UTF-8"?>
<svg id="Layer_1" xmlns="http://www.w3.org/2000/svg" version="1.1" viewBox="0 0 90 45">
  <!-- Generator: Adobe Illustrator 30.2.1, SVG Export Plug-In . SVG Version: 2.1.1 Build 1)  -->
  <defs>
    <style>
      .st0 {
        stroke: #ee2347;
      }

      .st0, .st1 {
        fill: none;
        stroke-miterlimit: 10;
        stroke-width: 2px;
      }

      .st2 {
        fill: #fff;
      }

      .st1 {
        stroke: #e12544;
      }
    </style>
  </defs>
  <path class="st2" d="M2.7,17.5c-.8-.3-1.4-.8-1.9-1.4-.5-.6-.7-1.3-.8-2.1h2.3c0,.7.4,1.2.9,1.6s1.3.6,2.2.6,1.5-.2,2-.6.7-.8.7-1.4-.3-1-.8-1.3-1.3-.6-2.4-.8c-1-.3-1.8-.5-2.4-.8-.6-.3-1.1-.7-1.6-1.2-.4-.5-.7-1.2-.7-2.1s.2-1.3.6-1.8c.4-.6,1-1,1.7-1.3.7-.3,1.6-.5,2.5-.5,1.5,0,2.6.4,3.5,1.1.9.7,1.4,1.7,1.4,3h-2.2c0-.7-.3-1.2-.8-1.7s-1.2-.6-2-.6-1.4.2-1.9.5c-.5.3-.7.8-.7,1.3s.1.8.4,1.1c.3.3.6.5,1.1.7s1,.4,1.8.6c.9.3,1.7.5,2.3.8.6.2,1.1.6,1.5,1.1.4.5.6,1.1.7,1.9,0,.7-.2,1.4-.6,1.9-.4.6-1,1-1.7,1.4-.7.3-1.6.5-2.5.5s-1.9-.2-2.7-.5h0Z"/>
  <path class="st2" d="M12.6,7.6c.5-1,1.3-1.8,2.2-2.4s2-.8,3.2-.8,2.2.2,3,.7c.8.5,1.5,1.1,1.9,1.9v-2.4h2.2v13.2h-2.2v-2.4c-.4.8-1.1,1.4-1.9,1.9s-1.9.8-3,.8-2.2-.3-3.2-.9c-.9-.6-1.7-1.4-2.2-2.4-.5-1-.8-2.2-.8-3.6s.3-2.5.8-3.5ZM22.4,8.6c-.4-.7-.9-1.3-1.6-1.7-.7-.4-1.4-.6-2.2-.6s-1.6.2-2.2.6c-.7.4-1.2.9-1.6,1.7s-.6,1.6-.6,2.6.2,1.9.6,2.6.9,1.3,1.6,1.7c.7.4,1.4.6,2.2.6s1.6-.2,2.2-.6c.7-.4,1.2-1,1.6-1.7s.6-1.6.6-2.6-.2-1.9-.6-2.6Z"/>
  <path class="st2" d="M38.6,5.8c1,1,1.5,2.4,1.5,4.2v7.8h-2.2v-7.4c0-1.3-.3-2.3-1-3-.7-.7-1.6-1-2.7-1s-2.1.4-2.7,1.1-1,1.8-1,3.1v7.3h-2.2V4.6h2.2v1.9c.4-.7,1-1.2,1.8-1.6.7-.4,1.6-.6,2.5-.6,1.6,0,2.9.5,3.9,1.5Z"/>
  <path class="st2" d="M43,7.6c.5-1,1.3-1.8,2.2-2.4s2-.8,3.2-.8,2,.2,2.9.7c.9.5,1.6,1.1,2,1.9V0h2.2v17.8h-2.2v-2.5c-.4.8-1.1,1.4-1.9,1.9s-1.8.8-3,.8-2.2-.3-3.2-.9-1.7-1.4-2.2-2.4-.8-2.2-.8-3.6.3-2.5.8-3.5ZM52.8,8.6c-.4-.7-.9-1.3-1.6-1.7-.7-.4-1.4-.6-2.2-.6s-1.6.2-2.2.6c-.7.4-1.2.9-1.6,1.7s-.6,1.6-.6,2.6.2,1.9.6,2.6.9,1.3,1.6,1.7,1.4.6,2.2.6,1.6-.2,2.2-.6c.7-.4,1.2-1,1.6-1.7s.6-1.6.6-2.6-.2-1.9-.6-2.6Z"/>
  <path class="st2" d="M70,4.6l-7.9,19.3h-2.3l2.6-6.3-5.3-13h2.4l4.1,10.7,4.1-10.7s2.3,0,2.3,0Z"/>
  <path class="st2" d="M61.1,25.6l-7.9,19.3h-2.3l2.6-6.3-5.3-13h2.4l4.1,10.7,4.1-10.7h2.3Z"/>
  <path class="st2" d="M65.1,38.2c-1-.6-1.8-1.4-2.4-2.4-.6-1-.9-2.2-.9-3.6s.3-2.5.9-3.6c.6-1,1.4-1.8,2.4-2.4,1-.6,2.1-.8,3.4-.8s2.4.3,3.4.8,1.8,1.3,2.4,2.4.9,2.2.9,3.6-.3,2.6-.9,3.6c-.6,1-1.4,1.8-2.4,2.4-1,.6-2.2.8-3.4.8s-2.3-.3-3.3-.8h0ZM70.7,36.5c.7-.4,1.2-.9,1.7-1.7.4-.7.6-1.6.6-2.7s-.2-2-.6-2.7c-.4-.7-1-1.3-1.6-1.6-.7-.4-1.4-.5-2.2-.5s-1.5.2-2.2.5-1.2.9-1.6,1.6-.6,1.6-.6,2.7.2,2,.6,2.7c.4.7.9,1.3,1.6,1.6s1.4.5,2.2.5,1.5-.2,2.2-.6h0Z"/>
  <path class="st2" d="M79.9,38.2c-1-.6-1.8-1.4-2.4-2.4-.6-1-.9-2.2-.9-3.6s.3-2.5.9-3.6c.6-1,1.4-1.8,2.4-2.4,1-.6,2.1-.8,3.4-.8s2.4.3,3.4.8,1.8,1.3,2.4,2.4.9,2.2.9,3.6-.3,2.6-.9,3.6c-.6,1-1.4,1.8-2.4,2.4-1,.6-2.2.8-3.4.8s-2.3-.3-3.3-.8h0ZM85.4,36.5c.7-.4,1.2-.9,1.7-1.7.4-.7.6-1.6.6-2.7s-.2-2-.6-2.7c-.4-.7-1-1.3-1.6-1.6-.7-.4-1.4-.5-2.2-.5s-1.5.2-2.2.5-1.2.9-1.6,1.6-.6,1.6-.6,2.7.2,2,.6,2.7c.4.7.9,1.3,1.6,1.6s1.4.5,2.2.5,1.5-.2,2.2-.6h0Z"/>
  <line class="st1" y1="26.6" x2="43.8" y2="26.6"/>
  <line class="st0" y1="22.9" x2="55.7" y2="22.9"/>
</svg>